inDegrees=no
num_controls=7
num_derivatives=13
num_iterations=131
num_multipliers=7
num_parameters=0
num_slacks=7
num_states=26
objective=4.382112
objective_accelerations=0.235695
objective_balance=0.023806
objective_effort=0.326693
objective_height=3.722449
objective_ligament=0.073468
solver_duration=1213.733079
status=Solve_Succeeded
success=true
DataType=double
version=3
OpenSimVersion=4.4-2022-07-23-0e9fedc
endheader
time	/jointset/ground_pelvis/pelvis_tilt/value	/jointset/ground_pelvis/pelvis_tx/value	/jointset/ground_pelvis/pelvis_ty/value	/jointset/hip_l/hip_flexion_l/value	/jointset/hip_l/hip_adduction_l/value	/jointset/hip_l/hip_rotation_l/value	/jointset/back/lumbar_extension/value	/jointset/patellofemoral_l/patellar_flexion_l/value	/jointset/knee_l/knee_flexion_l/value	/jointset/knee_l/knee_adduction_l/value	/jointset/knee_l/knee_rotation_l/value	/jointset/ankle_l/ankle_angle_l/value	/jointset/subtalar_l/subtalar_angle_l/value	/jointset/ground_pelvis/pelvis_tilt/speed	/jointset/ground_pelvis/pelvis_tx/speed	/jointset/ground_pelvis/pelvis_ty/speed	/jointset/hip_l/hip_flexion_l/speed	/jointset/hip_l/hip_adduction_l/speed	/jointset/hip_l/hip_rotation_l/speed	/jointset/back/lumbar_extension/speed	/jointset/patellofemoral_l/patellar_flexion_l/speed	/jointset/knee_l/knee_flexion_l/speed	/jointset/knee_l/knee_adduction_l/speed	/jointset/knee_l/knee_rotation_l/speed	/jointset/ankle_l/ankle_angle_l/speed	/jointset/subtalar_l/subtalar_angle_l/speed	/forceset/tau_hip_flexion_l	/forceset/tau_hip_adduction_l	/forceset/tau_hip_rotation_l	/forceset/tau_knee_flexion_l	/forceset/tau_ankle_angle_l	/forceset/tau_subtalar_angle_l	/forceset/tau_lumbar_extension	lambda_cid13_p0	lambda_cid13_p1	lambda_cid13_p2	lambda_cid13_p3	lambda_cid13_p4	lambda_cid13_p5	lambda_cid14_p0	/jointset/ground_pelvis/pelvis_tilt/accel	/jointset/ground_pelvis/pelvis_tx/accel	/jointset/ground_pelvis/pelvis_ty/accel	/jointset/hip_l/hip_flexion_l/accel	/jointset/hip_l/hip_adduction_l/accel	/jointset/hip_l/hip_rotation_l/accel	/jointset/back/lumbar_extension/accel	/jointset/patellofemoral_l/patellar_flexion_l/accel	/jointset/knee_l/knee_flexion_l/accel	/jointset/knee_l/knee_adduction_l/accel	/jointset/knee_l/knee_rotation_l/accel	/jointset/ankle_l/ankle_angle_l/accel	/jointset/subtalar_l/subtalar_angle_l/accel	gamma_cid13_p0	gamma_cid13_p1	gamma_cid13_p2	gamma_cid13_p3	gamma_cid13_p4	gamma_cid13_p5	gamma_cid14_p0
1	0.1222744827129868	0.01931483138552137	0.7931882398765639	0.7399329763322954	-0.3426012019946676	-0.01359471041162256	-0.9599310542529492	1.152088777672473	1.15208877767245	-0.09126092614416348	-0.1745327540772385	0.3738185800736508	0.09041646568561865	0.1187317239903272	0.03172751496156749	0.05501056278775503	-0.3028081777587074	0.0005118617366679128	-0.06784351747007765	-0.004592219806503475	-0.1665960859293148	-0.1665960859293017	0.000901932085247674	-9.357810133704269e-06	0.007804237405491668	0.006087412994641382	-0.2066743256742734	0.05651586021967033	-0.005162339434792393	-0.362333201710428	-0.05285789061740871	0.03260001744720285	0.3356040945493656	-65.23225495008141	-3.036538317687369	0.372524553617849	16.4911022563551	-768.4479935117836	-72.81183878090918	-1.998476742970937	-0.07426185657285116	-0.05836832696530728	0.9220747459068107	-2.524475594305261	0.1352717333189898	-1.314010747964621	0.9061656771582429	-4.042653700085086	-4.042653700085377	-0.1582332721595018	-0.007866773651330579	-1.728240576132236	-0.6407069211905567	-8.76320475687829e-09	8.624381014358299e-09	3.559656189418602e-08	7.206650295876815e-09	-2.271986317299539e-08	3.484403517218656e-08	-7.145855672924049e-09
1.01	0.1234576772749629	0.019629228306905	0.7937842703762261	0.736779515509576	-0.3425889353680011	-0.01433918690111802	-0.9599310885968813	1.150221134334068	1.150221134333978	-0.09125877362522285	-0.1745328326173596	0.37381039076703	0.09044597659314428	0.117896809348102	0.03115540462444688	0.064187765385837	-0.3278653444194535	0.001947319436112359	-0.08104671587296103	0.004602163791116606	-0.2069313648332669	-0.2069313648332655	-0.0004723092294030913	-5.735580025750968e-06	-0.009448006150018316	-0.0001792810132294684	-0.2058017667339742	0.0565837466404034	-0.005207110642893226	-0.3620156963451364	-0.05292322821801409	0.03262638490510034	0.335103975409074	-65.22836767510229	-3.062109796265895	0.3919526714380461	16.41042567894446	-768.1423780169301	-72.83882269705272	-2.039536209335896	-0.08966386803064963	-0.05609995073547996	0.9143716538312401	-2.493542205369472	0.1485568395110022	-1.322723513168144	0.9287956951287507	-4.028780554087239	-4.028780554088723	-0.1271554446078616	0.004579653471040004	-1.724603393999677	-0.618764032567413	-1.276920467413357e-08	8.351225758507928e-10	5.073174337966336e-08	1.066246209502041e-08	-2.794306601145508e-08	2.772560618068739e-08	-9.446071108341056e-09
1.02	0.124632211170512	0.01993801061218667	0.7944718386292821	0.7333760420195606	-0.3425621393540905	-0.01521554519998418	-0.9598386481778421	1.147950175092925	1.147950175092756	-0.09127039069613577	-0.1745328543487722	0.3736295015951062	0.09041299788219491	0.1169995907065692	0.030604591741175	0.0733181134666166	-0.3528107112166246	0.003417739185709826	-0.09421987934455525	0.0139053871513363	-0.2472592664787015	-0.2472592664787062	-0.001851985883657628	2.003935249308248e-06	-0.0267357356551	-0.006410510700383147	-0.2049292077936818	0.05665163306113841	-0.005251881851130999	-0.361698190979852	-0.05298856581861937	0.0326527523630032	0.3346038562687822	-65.23805237701252	-3.085452753818544	0.4111938947613928	16.3821720268211	-768.0173629229539	-72.86429776204301	-2.090016170386797	-0.08672265643459083	-0.05410883619539115	0.9127038424463553	-2.502115621590304	0.142264143349575	-1.308003761706802	0.9279336296785504	-4.041178248381611	-4.041178248380771	-0.1593203400802717	-0.007043316617892525	-1.735337766046336	-0.633614057047027	-1.65237904028537e-08	-8.177687541639035e-09	6.533916570458172e-08	1.321848158634225e-08	-3.150890477775433e-08	2.045720343670306e-08	-1.19775853387721e-08
1.03	0.1257971745189766	0.02024161481382555	0.7952504213615771	0.7297237937551525	-0.3425204993359328	-0.01622339469510722	-0.9596512910702604	1.145276150030581	1.145276150030625	-0.0912958996002704	-0.1745327768801413	0.3732759169518826	0.09031803170889613	0.1159542240529875	0.03014235670920749	0.08238532304851465	-0.3776093434414846	0.004912180166852215	-0.1073402336674287	0.02371775899987308	-0.2875275963121238	-0.2875275963121022	-0.003254831535325114	1.152630538155751e-05	-0.04395129265692343	-0.01256275799024637	-0.2048527093861998	0.05679802121574645	-0.005307849770104603	-0.3608886212154893	-0.05310400487871681	0.03276084871856066	0.335077506365801	-65.25989723993214	-3.161256819571684	0.4606108653958256	16.01463531295251	-768.1644508039988	-72.90538203158694	-2.150206015449661	-0.1192726571336821	-0.03836144928499528	0.9017559914588954	-2.464298864658491	0.1533139906622484	-1.312597215477391	1.030647657189044	-4.0169349816284	-4.016934981624991	-0.1315288523461074	0.004671022732939431	-1.710181936713484	-0.6030416471533201	-2.02758106806704e-08	-1.720298288034297e-08	7.994120273194334e-08	1.576531952350264e-08	-3.505783166576622e-08	1.318727034830562e-08	-1.4511459760989e-08
1.04	0.1269505184034362	0.02054138054262643	0.7961192814847692	0.7258244468001483	-0.3424638589249305	-0.01736215692303738	-0.9593612585052429	1.142199986743751	1.142199986743994	-0.09133558939585973	-0.1745326599860335	0.3727510732847482	0.09016214074625953	0.1146756979068798	0.02983689717357677	0.09137359164611331	-0.4022304493353488	0.00641781775461863	-0.1204024259062852	0.03444047863832193	-0.3276869113777837	-0.3276869113777397	-0.004688164172440328	9.889031679019591e-06	-0.06098754043727208	-0.01859546856800423	-0.2047762109787097	0.0569444093703626	-0.005363817689232205	-0.3600790514511293	-0.05321944393881246	0.03286894507413398	0.3355511564628305	-65.29540205806117	-3.234870449583858	0.5099081169531881	15.69785198301828	-768.4942509597025	-72.94565493365219	-2.22044499932045	-0.1333545549400068	-0.0227537369278503	0.8969156455864932	-2.466610355391234	0.1445034646743282	-1.296371344903451	1.110003187660772	-4.019375294829119	-4.019375294829054	-0.1654177371698478	-0.009275245384914583	-1.699475921751125	-0.6097067146258994	-2.238420412084334e-08	-2.782746271209792e-08	9.223065127218376e-08	1.551336717472149e-08	-3.860803773197764e-08	3.499445879169083e-10	-1.618123625662484e-08
